# xmcd CD database file generated by Grip 3.2.0
# 
# Track frame offsets:
#       150
#       18351
#       36357
#       51559
#       72621
#       88432
#       111463
#       129447
#       148757
#       167568
#       185213
# 
# Disc length: 2765 seconds
# 
# Revision: 1
# Processed by: cddbd v1.5.2PL0 Copyright (c) Steve Scherf et al.
# Submitted via: Grip 3.2.0
# 
DISCID=b10acb0b
DTITLE=Corinne Bailey Rae - Corinne Bailey Rae
DYEAR=2006
DGENRE=Blues
TTITLE0=Like A Star
TTITLE1=Enchantment
TTITLE2=Put Your Records On
TTITLE3=Till It Happens To You
TTITLE4=Trouble Sleeping
TTITLE5=Call Me When You Get This
TTITLE6=Choux Pastry Heart
TTITLE7=Breathless
TTITLE8=I'd Like To
TTITLE9=Butterfly
TTITLE10=Seasons Change
EXTD=
EXTT0=
EXTT1=
EXTT2=
EXTT3=
EXTT4=
EXTT5=
EXTT6=
EXTT7=
EXTT8=
EXTT9=
EXTT10=
PLAYORDER=
